<svg xmlns="http://www.w3.org/2000/svg" xmlns:xlink="http://www.w3.org/1999/xlink" width="257" height="257" viewBox="0 0 257 257"><defs><circle id="logo-a" cx="128.5" cy="128.5" r="124.5"/></defs><g fill="none" fill-rule="evenodd"><circle cx="128" cy="128" r="125" fill="#FFF" transform="translate(.5 .5)"/><mask id="logo-b" fill="#fff"><use xlink:href="#logo-a"/></mask><use fill="#4693F5" xlink:href="#logo-a"/><g fill="#FFF" mask="url(#logo-b)"><g><path d="M76,0 L128.6,0 C141.523463,-2.37400167e-15 152,10.4765369 152,23.4 L152,76 L76,76 L76,0 Z" opacity=".9" transform="translate(53 53)"/><path d="M23.4,0 L76,0 L76,152 L23.4,152 C10.4765369,152 1.58266778e-15,141.523463 0,128.6 L0,23.4 C-1.58266778e-15,10.4765369 10.4765369,2.37400167e-15 23.4,0 Z" transform="translate(53 53)"/><path d="M76,76 L152,76 L152,128.6 C152,141.523463 141.523463,152 128.6,152 L76,152 L76,76 Z" opacity=".1" transform="translate(53 53)"/></g></g></g></svg>