<svg height="360" viewBox="0 0 640 360" width="640" xmlns="http://www.w3.org/2000/svg"><g fill="none" fill-rule="evenodd"><path d="m0 0h640v360h-640z" fill="#4693f5"/><g fill="#fff"><path d="m290.225148 200c7.645969 0 12.829677-3.652174 16.458273-8.673913l-4.535745-2.478261c-2.462261 3.652174-6.998006 6.326087-11.922528 6.326087-9.460267 0-16.652662-7.369565-16.652662-17.673913 0-10.434783 7.192395-17.673913 16.652662-17.673913 4.924522 0 9.460267 2.608696 11.922528 6.326087l4.470948-2.543478c-3.434206-4.956522-8.747507-8.608696-16.393476-8.608696-12.440899 0-22.225148 9.130435-22.225148 22.5s9.784249 22.5 22.225148 22.5zm27.272063-.782609v-43.5h-4.859726v43.5zm23.189894.782609c5.054115 0 9.265878-1.76087 12.440899-4.891304l-2.332669-3.195653c-2.527057 2.608696-6.090856 4.043479-9.719452 4.043479-6.73882 0-10.82099-4.956522-11.209768-10.891305h25.270576v-1.23913c0-9.456522-5.572486-16.891304-15.032753-16.891304-8.941896 0-15.421531 7.369565-15.421531 16.5 0 9.847826 6.674024 16.565217 16.004698 16.565217zm9.654656-18.586957h-20.540443c.259186-4.760869 3.563799-10.434782 10.237823-10.434782 7.127599 0 10.237824 5.804348 10.30262 10.434782zm36.343553 17.804348v-21.652174c0-7.630434-5.442894-10.630434-12.116918-10.630434-5.118911 0-9.136285 1.695652-12.505695 5.217391l2.267872 3.391304c2.786243-3.065217 5.831671-4.369565 9.58986-4.369565 4.535744 0 7.905154 2.413044 7.905154 6.586957v5.673913c-2.527057-2.869566-6.090857-4.239131-10.367416-4.239131-5.3133 0-10.885786 3.26087-10.885786 10.369565 0 6.847826 5.637282 10.434783 10.885786 10.434783 4.211763 0 7.840359-1.5 10.367416-4.369565v3.586956zm-13.412845-2.73913c-4.600541 0-7.775562-2.869565-7.775562-6.913044 0-3.97826 3.175021-6.847826 7.775562-6.847826 3.36941 0 6.674024 1.304348 8.553118 3.847826v6c-1.879094 2.608696-5.183708 3.913044-8.553118 3.913044zm27.33686 2.73913v-22.304348c1.42552-2.543478 5.50769-5.021739 8.553118-5.021739.71276 0 1.295927.065218 1.879094.130435v-5.021739c-4.276559 0-7.905154 2.478261-10.432212 5.73913v-5.021739h-4.859726v31.5zm20.662836-8.543478v-14.282609c1.684705-2.73913 5.50769-5.086956 9.395471-5.086956 6.285246 0 10.043434 5.217391 10.043434 12.195652s-3.758188 12.130435-10.043434 12.130435c-3.887781 0-7.710766-2.217392-9.395471-4.956522zm0 8.543478v-4.695652c2.332669 3.195652 6.155653 5.478261 10.561805 5.478261 8.16434 0 13.931215-6.26087 13.931215-16.5 0-10.108696-5.702079-16.565217-13.931215-16.565217-4.211763 0-8.034747 2.086956-10.561805 5.543478v-16.76087h-4.859726v43.5zm34.140477-36c1.814297 0 3.239817-1.434782 3.239817-3.260869s-1.42552-3.326087-3.239817-3.326087c-1.814298 0-3.304614 1.5-3.304614 3.326087s1.490316 3.260869 3.304614 3.260869zm2.397464 36v-31.5h-4.859726v31.5zm16.969444.782609c2.786243 0 4.535745-.847826 5.766876-2.021739l-1.42552-3.717391c-.647964.717391-1.879094 1.369565-3.304614 1.369565-2.073483 0-3.110225-1.695652-3.110225-4.043478v-19.565218h6.350043v-4.304348h-6.350043v-8.608695h-4.924522v8.608695h-5.183708v4.304348h5.183708v20.608696c0 4.695652 2.332668 7.369565 6.998005 7.369565z"/><g transform="translate(160 142)"><path d="m38 0h26.3c6.4617316 0 11.7 5.23826843 11.7 11.7v26.3h-38z" opacity=".9"/><path d="m11.7 0h26.3v76h-26.3c-6.46173157 0-11.7-5.2382684-11.7-11.7v-52.6c0-6.46173157 5.23826843-11.7 11.7-11.7z"/><path d="m38 38h38v26.3c0 6.4617316-5.2382684 11.7-11.7 11.7h-26.3z" opacity=".1"/></g></g></g></svg>