<?xml version="1.0" encoding="UTF-8"?>
<svg width="640px" height="360px" viewBox="0 0 640 360" version="1.1" xmlns="http://www.w3.org/2000/svg" xmlns:xlink="http://www.w3.org/1999/xlink">
    <!-- Generator: Sketch 52.6 (67491) - http://www.bohemiancoding.com/sketch -->
    <title>clearbit/picture</title>
    <desc>Created with Sketch.</desc>
    <g id="clearbit/picture" stroke="none" stroke-width="1" fill="none" fill-rule="evenodd">
        <rect id="Rectangle" fill="#4693F5" x="0" y="0" width="640" height="360"></rect>
        <path d="M290.225148,200 C297.871117,200 303.054825,196.347826 306.683421,191.326087 L302.147676,188.847826 C299.685415,192.5 295.14967,195.173913 290.225148,195.173913 C280.764881,195.173913 273.572486,187.804348 273.572486,177.5 C273.572486,167.065217 280.764881,159.826087 290.225148,159.826087 C295.14967,159.826087 299.685415,162.434783 302.147676,166.152174 L306.618624,163.608696 C303.184418,158.652174 297.871117,155 290.225148,155 C277.784249,155 268,164.130435 268,177.5 C268,190.869565 277.784249,200 290.225148,200 L290.225148,200 Z M317.497211,199.217391 L317.497211,155.717391 L312.637485,155.717391 L312.637485,199.217391 L317.497211,199.217391 Z M340.687105,200 C345.74122,200 349.952983,198.23913 353.128004,195.108696 L350.795335,191.913043 C348.268278,194.521739 344.704479,195.956522 341.075883,195.956522 C334.337063,195.956522 330.254893,191 329.866115,185.065217 L355.136691,185.065217 L355.136691,183.826087 C355.136691,174.369565 349.564205,166.934783 340.103938,166.934783 C331.162042,166.934783 324.682407,174.304348 324.682407,183.434783 C324.682407,193.282609 331.356431,200 340.687105,200 L340.687105,200 Z M350.341761,181.413043 L329.801318,181.413043 C330.060504,176.652174 333.365117,170.978261 340.039141,170.978261 C347.16674,170.978261 350.276965,176.782609 350.341761,181.413043 L350.341761,181.413043 Z M386.685314,199.217391 L386.685314,177.565217 C386.685314,169.934783 381.24242,166.934783 374.568396,166.934783 C369.449485,166.934783 365.432111,168.630435 362.062701,172.152174 L364.330573,175.543478 C367.116816,172.478261 370.162244,171.173913 373.920433,171.173913 C378.456177,171.173913 381.825587,173.586957 381.825587,177.76087 L381.825587,183.434783 C379.29853,180.565217 375.73473,179.195652 371.458171,179.195652 C366.144871,179.195652 360.572385,182.456522 360.572385,189.565217 C360.572385,196.413043 366.209667,200 371.458171,200 C375.669934,200 379.29853,198.5 381.825587,195.630435 L381.825587,199.217391 L386.685314,199.217391 Z M373.272469,196.478261 C368.671928,196.478261 365.496907,193.608696 365.496907,189.565217 C365.496907,185.586957 368.671928,182.717391 373.272469,182.717391 C376.641879,182.717391 379.946493,184.021739 381.825587,186.565217 L381.825587,192.565217 C379.946493,195.173913 376.641879,196.478261 373.272469,196.478261 L373.272469,196.478261 Z M400.609329,199.217391 L400.609329,176.913043 C402.034849,174.369565 406.117019,171.891304 409.162447,171.891304 C409.875207,171.891304 410.458374,171.956522 411.041541,172.021739 L411.041541,167 C406.764982,167 403.136387,169.478261 400.609329,172.73913 L400.609329,167.717391 L395.749603,167.717391 L395.749603,199.217391 L400.609329,199.217391 Z M421.272165,190.673913 L421.272165,176.391304 C422.95687,173.652174 426.779855,171.304348 430.667636,171.304348 C436.952882,171.304348 440.71107,176.521739 440.71107,183.5 C440.71107,190.478261 436.952882,195.630435 430.667636,195.630435 C426.779855,195.630435 422.95687,193.413043 421.272165,190.673913 L421.272165,190.673913 Z M421.272165,199.217391 L421.272165,194.521739 C423.604834,197.717391 427.427818,200 431.83397,200 C439.99831,200 445.765185,193.73913 445.765185,183.5 C445.765185,173.391304 440.063106,166.934783 431.83397,166.934783 C427.622207,166.934783 423.799223,169.021739 421.272165,172.478261 L421.272165,155.717391 L416.412439,155.717391 L416.412439,199.217391 L421.272165,199.217391 Z M455.412642,163.217391 C457.226939,163.217391 458.652459,161.782609 458.652459,159.956522 C458.652459,158.130435 457.226939,156.630435 455.412642,156.630435 C453.598344,156.630435 452.108028,158.130435 452.108028,159.956522 C452.108028,161.782609 453.598344,163.217391 455.412642,163.217391 L455.412642,163.217391 Z M457.810106,199.217391 L457.810106,167.717391 L452.95038,167.717391 L452.95038,199.217391 L457.810106,199.217391 Z M474.77955,200 C477.565793,200 479.315295,199.152174 480.546426,197.978261 L479.120906,194.26087 C478.472942,194.978261 477.241812,195.630435 475.816292,195.630435 C473.742809,195.630435 472.706067,193.934783 472.706067,191.586957 L472.706067,172.021739 L479.05611,172.021739 L479.05611,167.717391 L472.706067,167.717391 L472.706067,159.108696 L467.781545,159.108696 L467.781545,167.717391 L462.597837,167.717391 L462.597837,172.021739 L467.781545,172.021739 L467.781545,192.630435 C467.781545,197.326087 470.114213,200 474.77955,200 L474.77955,200 Z" id="Clearbit" fill="#FFFFFF"></path>
        <g id="Group" transform="translate(160.000000, 142.000000)" fill="#FFFFFF">
            <path d="M38,0 L64.3,0 C70.7617316,-1.18700083e-15 76,5.23826843 76,11.7 L76,38 L38,38 L38,0 Z" id="Rectangle-96-Copy-4" opacity="0.900000036"></path>
            <path d="M11.7,0 L38,0 L38,76 L11.7,76 C5.23826843,76 7.91333889e-16,70.7617316 0,64.3 L0,11.7 C-7.91333889e-16,5.23826843 5.23826843,1.18700083e-15 11.7,0 Z" id="Rectangle-96"></path>
            <path d="M38,38 L76,38 L76,64.3 C76,70.7617316 70.7617316,76 64.3,76 L38,76 L38,38 Z" id="Rectangle-96-Copy-3" opacity="0.100000001"></path>
        </g>
    </g>
</svg>