<svg xmlns="http://www.w3.org/2000/svg" width="640" height="360" style="background:#fff" viewBox="0 0 640 360">
  <defs>
    <linearGradient id="picture-a" x1="0%" y1="57.714%" y2="57.714%">
      <stop offset="0%" stop-color="#565DFF"/>
      <stop offset="100%" stop-color="#499AFF"/>
    </linearGradient>
  </defs>
  <g fill="none" fill-rule="evenodd">
    <rect width="640" height="360" fill="url(#picture-a)"/>
    <path fill="#FFF" d="M286.692,201.864 C295.188,201.864 300.948,197.832 304.98,192.288 L299.94,189.552 C297.204,193.584 292.164,196.536 286.692,196.536 C276.18,196.536 268.188,188.4 268.188,177.024 C268.188,165.504 276.18,157.512 286.692,157.512 C292.164,157.512 297.204,160.392 299.94,164.496 L304.908,161.688 C301.092,156.216 295.188,152.184 286.692,152.184 C272.868,152.184 261.996,162.264 261.996,177.024 C261.996,191.784 272.868,201.864 286.692,201.864 L286.692,201.864 Z M316.996,201 L316.996,152.976 L311.596,152.976 L311.596,201 L316.996,201 Z M342.764,201.864 C348.38,201.864 353.06,199.92 356.588,196.464 L353.996,192.936 C351.188,195.816 347.228,197.4 343.196,197.4 C335.708,197.4 331.172,191.928 330.74,185.376 L358.82,185.376 L358.82,184.008 C358.82,173.568 352.628,165.36 342.116,165.36 C332.18,165.36 324.98,173.496 324.98,183.576 C324.98,194.448 332.396,201.864 342.764,201.864 L342.764,201.864 Z M353.492,181.344 L330.668,181.344 C330.956,176.088 334.628,169.824 342.044,169.824 C349.964,169.824 353.42,176.232 353.492,181.344 L353.492,181.344 Z M393.876,201 L393.876,177.096 C393.876,168.672 387.828,165.36 380.412,165.36 C374.724,165.36 370.26,167.232 366.516,171.12 L369.036,174.864 C372.132,171.48 375.516,170.04 379.692,170.04 C384.732,170.04 388.476,172.704 388.476,177.312 L388.476,183.576 C385.668,180.408 381.708,178.896 376.956,178.896 C371.052,178.896 364.86,182.496 364.86,190.344 C364.86,197.904 371.124,201.864 376.956,201.864 C381.636,201.864 385.668,200.208 388.476,197.04 L388.476,201 L393.876,201 Z M378.972,197.976 C373.86,197.976 370.332,194.808 370.332,190.344 C370.332,185.952 373.86,182.784 378.972,182.784 C382.716,182.784 386.388,184.224 388.476,187.032 L388.476,193.656 C386.388,196.536 382.716,197.976 378.972,197.976 L378.972,197.976 Z M409.348,201 L409.348,176.376 C410.932,173.568 415.468,170.832 418.852,170.832 C419.644,170.832 420.292,170.904 420.94,170.976 L420.94,165.432 C416.188,165.432 412.156,168.168 409.348,171.768 L409.348,166.224 L403.948,166.224 L403.948,201 L409.348,201 Z M432.308,191.568 L432.308,175.8 C434.18,172.776 438.428,170.184 442.748,170.184 C449.732,170.184 453.908,175.944 453.908,183.648 C453.908,191.352 449.732,197.04 442.748,197.04 C438.428,197.04 434.18,194.592 432.308,191.568 L432.308,191.568 Z M432.308,201 L432.308,195.816 C434.9,199.344 439.148,201.864 444.044,201.864 C453.116,201.864 459.524,194.952 459.524,183.648 C459.524,172.488 453.188,165.36 444.044,165.36 C439.364,165.36 435.116,167.664 432.308,171.48 L432.308,152.976 L426.908,152.976 L426.908,201 L432.308,201 Z M470.244,161.256 C472.26,161.256 473.844,159.672 473.844,157.656 C473.844,155.64 472.26,153.984 470.244,153.984 C468.228,153.984 466.572,155.64 466.572,157.656 C466.572,159.672 468.228,161.256 470.244,161.256 L470.244,161.256 Z M472.908,201 L472.908,166.224 L467.508,166.224 L467.508,201 L472.908,201 Z M491.764,201.864 C494.86,201.864 496.804,200.928 498.172,199.632 L496.588,195.528 C495.868,196.32 494.5,197.04 492.916,197.04 C490.612,197.04 489.46,195.168 489.46,192.576 L489.46,170.976 L496.516,170.976 L496.516,166.224 L489.46,166.224 L489.46,156.72 L483.988,156.72 L483.988,166.224 L478.228,166.224 L478.228,170.976 L483.988,170.976 L483.988,193.728 C483.988,198.912 486.58,201.864 491.764,201.864 L491.764,201.864 Z"/>
    <g fill="#FFF" transform="translate(142 138)">
      <path d="M42,0 L70.9985678,0 C78.1790605,0 84,5.81785607 84,13.0014322 L84,42 L42,42 L42,0 Z" opacity=".9"/>
      <path d="M0,13.0098316 C0,5.82470002 5.81785607,0 13.0014322,0 L42,0 L42,84 L13.0014322,84 C5.82093946,84 0,78.1765963 0,70.9901684 L0,13.0098316 Z"/>
      <path d="M42,42 L84,42 L84,70.9985678 C84,78.1790605 78.1821439,84 70.9985678,84 L42,84 L42,42 Z" opacity=".1"/>
    </g>
  </g>
</svg>
